<svg width="197" height="26" viewBox="0 0 197 26" fill="none" xmlns="http://www.w3.org/2000/svg">
	<g id="ModelCanvasLogo">
		<g id="LogoModelCanvas">
			<path id="TextCanvas" fill-rule="evenodd" clip-rule="evenodd" d="M95.8988 7.89364C96.3115 8.10654 96.5179 8.44584 96.5179 8.91155C96.5179 9.19098 96.418 9.46375 96.2183 9.72987C96.0053 10.0093 95.7323 10.149 95.3995 10.149C95.1731 10.149 94.9468 10.0891 94.7204 9.96938C94.068 9.66334 93.3623 9.51032 92.6033 9.51032C91.6713 9.51032 90.8591 9.70659 90.1667 10.0991C89.4744 10.4916 88.9418 11.0438 88.5689 11.7557C88.1961 12.4676 88.0097 13.2826 88.0097 14.2007C88.0097 15.7708 88.4325 16.9617 89.278 17.7734C90.1235 18.585 91.2319 18.9909 92.6033 18.9909C93.4156 18.9909 94.1212 18.8379 94.7204 18.5318C94.9601 18.4254 95.1731 18.3722 95.3595 18.3722C95.7057 18.3722 95.9986 18.5185 96.2383 18.8113C96.438 19.0641 96.5379 19.3368 96.5379 19.6296C96.5379 19.8425 96.4846 20.0354 96.3781 20.2084C96.2716 20.3814 96.1185 20.5144 95.9187 20.6076C94.8802 21.1265 93.7751 21.386 92.6033 21.386C91.2985 21.386 90.1002 21.1099 89.0083 20.5577C87.9165 20.0055 87.0444 19.1905 86.392 18.1127C85.7395 17.0349 85.4133 15.7309 85.4133 14.2007C85.4133 12.8435 85.7229 11.626 86.342 10.5482C86.9612 9.47041 87.8167 8.6288 88.9085 8.02337C90.0003 7.41795 91.2319 7.11523 92.6033 7.11523C93.7884 7.11523 94.8868 7.3747 95.8988 7.89364V7.89364ZM107.083 10.3087C107.429 10.3087 107.716 10.4218 107.942 10.648C108.168 10.8742 108.282 11.1669 108.282 11.5262V19.9686C108.282 20.3146 108.168 20.604 107.942 20.8368C107.716 21.0697 107.429 21.1861 107.083 21.1861C106.737 21.1861 106.454 21.073 106.234 20.8468C106.015 20.6206 105.898 20.3345 105.885 19.9886C105.552 20.3744 105.103 20.7038 104.537 20.9765C103.971 21.2493 103.375 21.3857 102.749 21.3857C101.831 21.3857 100.998 21.1495 100.253 20.6771C99.5071 20.2048 98.9179 19.5495 98.4852 18.7112C98.0524 17.8729 97.8361 16.9215 97.8361 15.857C97.8361 14.7925 98.0491 13.8378 98.4752 12.9929C98.9013 12.148 99.4838 11.4893 100.223 11.017C100.962 10.5446 101.777 10.3084 102.669 10.3084C103.308 10.3084 103.908 10.4248 104.467 10.6577C105.026 10.8905 105.499 11.1866 105.885 11.5459V11.5259C105.885 11.18 105.998 10.8905 106.224 10.6577C106.451 10.4248 106.737 10.3084 107.083 10.3084V10.3087ZM103.049 19.1905C103.914 19.1905 104.62 18.8745 105.166 18.2424C105.712 17.6104 105.985 16.8153 105.985 15.8573C105.985 14.8993 105.712 14.1009 105.166 13.4622C104.62 12.8235 103.914 12.5042 103.049 12.5042C102.197 12.5042 101.498 12.8235 100.952 13.4622C100.406 14.1009 100.133 14.8993 100.133 15.8573C100.133 16.8153 100.403 17.6104 100.942 18.2424C101.481 18.8745 102.183 19.1905 103.049 19.1905ZM116.59 10.3087C117.948 10.3087 118.887 10.7112 119.406 11.5162C119.925 12.3212 120.185 13.4356 120.185 14.8594V19.9689C120.185 20.3148 120.072 20.6042 119.845 20.8371C119.619 21.07 119.333 21.1864 118.986 21.1864C118.64 21.1864 118.354 21.07 118.128 20.8371C117.901 20.6042 117.788 20.3148 117.788 19.9689V14.8594C117.788 14.1275 117.635 13.552 117.329 13.1329C117.022 12.7138 116.497 12.5042 115.751 12.5042C114.979 12.5042 114.373 12.7271 113.933 13.1728C113.494 13.6186 113.274 14.1807 113.274 14.8594V19.9689C113.274 20.3148 113.161 20.6042 112.935 20.8371C112.708 21.07 112.422 21.1864 112.076 21.1864C111.73 21.1864 111.444 21.07 111.217 20.8371C110.991 20.6042 110.878 20.3148 110.878 19.9689V11.7261C110.878 11.3801 110.991 11.0907 111.217 10.8578C111.444 10.625 111.73 10.5086 112.076 10.5086C112.422 10.5086 112.708 10.625 112.935 10.8578C113.161 11.0907 113.274 11.3801 113.274 11.7261V12.0654C113.634 11.5863 114.103 11.1739 114.682 10.8279C115.262 10.4819 115.897 10.309 116.59 10.309V10.3087ZM130.89 10.5282C131.21 10.5282 131.476 10.6314 131.689 10.8376C131.902 11.0438 132.008 11.3 132.008 11.606C132.008 11.7657 131.955 11.9653 131.849 12.2048L128.114 20.4282C128.021 20.6544 127.884 20.834 127.704 20.9671C127.525 21.1002 127.322 21.1734 127.095 21.1867L126.916 21.2066C126.689 21.2066 126.479 21.1368 126.286 20.997C126.093 20.8573 125.944 20.6677 125.837 20.4282L122.122 12.2048C122.029 11.9919 121.982 11.779 121.982 11.5661C121.982 11.3 122.096 11.0572 122.322 10.8376C122.548 10.6181 122.828 10.5083 123.161 10.5083C123.414 10.5083 123.647 10.5748 123.86 10.7079C124.073 10.8409 124.233 11.0272 124.339 11.2667L127.095 17.5738L129.832 11.2867C129.938 11.0339 130.084 10.8409 130.271 10.7079C130.457 10.5748 130.664 10.5149 130.89 10.5282V10.5282ZM142.514 10.3087C142.86 10.3087 143.147 10.4218 143.373 10.648C143.599 10.8742 143.713 11.1669 143.713 11.5262V19.9686C143.713 20.3146 143.599 20.604 143.373 20.8368C143.147 21.0697 142.86 21.1861 142.514 21.1861C142.168 21.1861 141.885 21.073 141.665 20.8468C141.446 20.6206 141.329 20.3345 141.316 19.9886C140.983 20.3744 140.534 20.7038 139.968 20.9765C139.402 21.2493 138.806 21.3857 138.18 21.3857C137.261 21.3857 136.429 21.1495 135.684 20.6771C134.938 20.2048 134.349 19.5495 133.916 18.7112C133.483 17.8729 133.267 16.9215 133.267 15.857C133.267 14.7925 133.48 13.8378 133.906 12.9929C134.332 12.148 134.915 11.4893 135.654 11.017C136.393 10.5446 137.208 10.3084 138.1 10.3084C138.739 10.3084 139.339 10.4248 139.898 10.6577C140.457 10.8905 140.93 11.1866 141.316 11.5459V11.5259C141.316 11.18 141.429 10.8905 141.655 10.6577C141.882 10.4248 142.168 10.3084 142.514 10.3084V10.3087ZM138.48 19.1905C139.345 19.1905 140.051 18.8745 140.597 18.2424C141.143 17.6104 141.416 16.8153 141.416 15.8573C141.416 14.8993 141.143 14.1009 140.597 13.4622C140.051 12.8235 139.345 12.5042 138.48 12.5042C137.628 12.5042 136.929 12.8235 136.383 13.4622C135.837 14.1009 135.564 14.8993 135.564 15.8573C135.564 16.8153 135.833 17.6104 136.373 18.2424C136.912 18.8745 137.614 19.1905 138.48 19.1905V19.1905ZM145.69 19.5298C145.57 19.3701 145.51 19.1705 145.51 18.931C145.51 18.585 145.683 18.2923 146.029 18.0528C146.216 17.9331 146.409 17.8732 146.609 17.8732C146.888 17.8732 147.155 17.9996 147.408 18.2524C147.807 18.6649 148.223 18.9709 148.656 19.1705C149.089 19.3701 149.611 19.4699 150.224 19.4699C151.262 19.43 151.781 19.0375 151.781 18.2923C151.781 17.9064 151.605 17.6137 151.252 17.4141C150.899 17.2145 150.35 17.0149 149.604 16.8153C148.832 16.6024 148.203 16.3895 147.717 16.1767C147.231 15.9638 146.812 15.6411 146.459 15.2086C146.106 14.7762 145.93 14.1941 145.93 13.4622C145.93 12.8235 146.113 12.268 146.479 11.7956C146.845 11.3233 147.324 10.9574 147.917 10.6979C148.509 10.4384 149.138 10.3087 149.804 10.3087C150.483 10.3087 151.162 10.4351 151.841 10.6879C152.52 10.9407 153.053 11.3133 153.439 11.8056C153.612 12.0185 153.699 12.258 153.699 12.5241C153.699 12.8302 153.572 13.083 153.319 13.2826C153.133 13.429 152.92 13.5021 152.68 13.5021C152.387 13.5021 152.148 13.409 151.961 13.2227C151.722 12.93 151.412 12.6971 151.032 12.5241C150.653 12.3512 150.224 12.2647 149.744 12.2647C148.732 12.2647 148.226 12.6306 148.226 13.3624C148.226 13.6552 148.32 13.8913 148.506 14.071C148.692 14.2506 148.929 14.3903 149.215 14.4901C149.501 14.5899 149.904 14.713 150.423 14.8594C151.142 15.0589 151.741 15.2652 152.221 15.4781C152.7 15.691 153.106 16.017 153.439 16.4561C153.772 16.8952 153.938 17.474 153.938 18.1925C153.938 18.8445 153.745 19.4134 153.359 19.899C152.973 20.3847 152.477 20.7539 151.871 21.0068C151.265 21.2596 150.643 21.386 150.004 21.386C149.125 21.386 148.306 21.2396 147.547 20.9469C146.788 20.6541 146.169 20.1818 145.69 19.5298V19.5298ZM156.994 21.1664C156.608 21.1664 156.312 21.0633 156.106 20.8571C155.899 20.6508 155.796 20.3548 155.796 19.9689V19.6296C155.796 19.2437 155.899 18.9476 156.106 18.7414C156.312 18.5352 156.608 18.432 156.994 18.432H157.254C157.64 18.432 157.936 18.5352 158.143 18.7414C158.349 18.9476 158.452 19.2437 158.452 19.6296V19.9689C158.452 20.3548 158.349 20.6508 158.143 20.8571C157.936 21.0633 157.64 21.1664 157.254 21.1664H156.994ZM169.557 10.3088C169.903 10.3088 170.189 10.4219 170.416 10.6481C170.642 10.8743 170.755 11.1671 170.755 11.5263V19.9687C170.755 20.3147 170.642 20.6041 170.416 20.837C170.189 21.0698 169.903 21.1862 169.557 21.1862C169.211 21.1862 168.928 21.0731 168.708 20.8469C168.488 20.6207 168.372 20.3347 168.358 19.9887C168.026 20.3746 167.576 20.7039 167.01 20.9767C166.444 21.2494 165.849 21.3858 165.223 21.3858C164.304 21.3858 163.472 21.1497 162.726 20.6773C161.981 20.2049 161.391 19.5496 160.959 18.7113C160.526 17.873 160.31 16.9217 160.31 15.8572C160.31 14.7927 160.523 13.838 160.949 12.993C161.375 12.1481 161.957 11.4895 162.696 11.0171C163.435 10.5447 164.251 10.3085 165.143 10.3085C165.782 10.3085 166.381 10.425 166.94 10.6578C167.5 10.8907 167.972 11.1867 168.358 11.546V11.5261C168.358 11.1801 168.472 10.8907 168.698 10.6578C168.924 10.425 169.211 10.3085 169.557 10.3085V10.3088ZM165.522 19.1906C166.388 19.1906 167.094 18.8746 167.639 18.2426C168.185 17.6105 168.458 16.8155 168.458 15.8574C168.458 14.8994 168.185 14.101 167.639 13.4624C167.094 12.8237 166.388 12.5043 165.522 12.5043C164.67 12.5043 163.971 12.8237 163.425 13.4624C162.879 14.101 162.606 14.8994 162.606 15.8574C162.606 16.8155 162.876 17.6105 163.415 18.2426C163.955 18.8746 164.657 19.1906 165.522 19.1906V19.1906ZM178.884 10.3088C179.802 10.3088 180.635 10.545 181.38 11.0174C182.126 11.4897 182.715 12.1451 183.148 12.9833C183.58 13.8216 183.797 14.773 183.797 15.8375C183.797 16.902 183.584 17.8567 183.158 18.7016C182.732 19.5466 182.149 20.2052 181.41 20.6776C180.671 21.1499 179.856 21.3861 178.964 21.3861C178.324 21.3861 177.722 21.2564 177.156 20.9969C176.59 20.7374 176.121 20.4214 175.748 20.0489V23.9608C175.748 24.3068 175.635 24.5962 175.408 24.8291C175.182 25.0619 174.896 25.1783 174.55 25.1783C174.203 25.1783 173.917 25.0652 173.691 24.839C173.465 24.6128 173.351 24.3201 173.351 23.9608V11.7262C173.351 11.3802 173.465 11.0908 173.691 10.858C173.917 10.6251 174.203 10.5087 174.55 10.5087C174.896 10.5087 175.182 10.6251 175.408 10.858C175.635 11.0908 175.748 11.3802 175.748 11.7262V11.806C176.068 11.4069 176.514 11.0576 177.086 10.7582C177.659 10.4588 178.258 10.3091 178.884 10.3091V10.3088ZM178.584 19.1906C179.436 19.1906 180.135 18.8713 180.681 18.2326C181.227 17.5939 181.5 16.7955 181.5 15.8375C181.5 14.8795 181.23 14.0844 180.691 13.4524C180.152 12.8203 179.45 12.5043 178.584 12.5043C177.719 12.5043 177.013 12.8203 176.467 13.4524C175.921 14.0844 175.648 14.8795 175.648 15.8375C175.648 16.7955 175.921 17.5939 176.467 18.2326C177.013 18.8713 177.719 19.1906 178.584 19.1906V19.1906ZM191.326 10.3088C192.245 10.3088 193.077 10.545 193.823 11.0174C194.568 11.4897 195.157 12.1451 195.59 12.9833C196.023 13.8216 196.239 14.773 196.239 15.8375C196.239 16.902 196.026 17.8567 195.6 18.7016C195.174 19.5466 194.592 20.2052 193.853 20.6776C193.114 21.1499 192.298 21.3861 191.406 21.3861C190.767 21.3861 190.164 21.2564 189.599 20.9969C189.033 20.7374 188.563 20.4214 188.19 20.0489V23.9608C188.19 24.3068 188.077 24.5962 187.851 24.8291C187.625 25.0619 187.338 25.1783 186.992 25.1783C186.646 25.1783 186.36 25.0652 186.133 24.839C185.907 24.6128 185.794 24.3201 185.794 23.9608V11.7262C185.794 11.3802 185.907 11.0908 186.133 10.858C186.36 10.6251 186.646 10.5087 186.992 10.5087C187.338 10.5087 187.625 10.6251 187.851 10.858C188.077 11.0908 188.19 11.3802 188.19 11.7262V11.806C188.51 11.4069 188.956 11.0576 189.529 10.7582C190.101 10.4588 190.7 10.3091 191.326 10.3091V10.3088ZM191.027 19.1906C191.879 19.1906 192.578 18.8713 193.124 18.2326C193.67 17.5939 193.942 16.7955 193.942 15.8375C193.942 14.8795 193.673 14.0844 193.134 13.4524C192.594 12.8203 191.892 12.5043 191.027 12.5043C190.161 12.5043 189.455 12.8203 188.909 13.4524C188.364 14.0844 188.091 14.8795 188.091 15.8375C188.091 16.7955 188.364 17.5939 188.909 18.2326C189.455 18.8713 190.161 19.1906 191.027 19.1906V19.1906Z" fill="#2C3E50" />
			<path id="TextModel" fill-rule="evenodd" clip-rule="evenodd" d="M38.2511 10.3088C39.5693 10.3088 40.4813 10.7113 40.9873 11.5163C41.4933 12.3214 41.7463 13.4357 41.7463 14.8595V19.969C41.7463 20.315 41.6331 20.6044 41.4067 20.8372C41.1804 21.0701 40.8941 21.1865 40.5479 21.1865C40.2017 21.1865 39.9155 21.0701 39.6891 20.8372C39.4628 20.6044 39.3496 20.315 39.3496 19.969V14.8595C39.3496 14.1277 39.2064 13.5522 38.9202 13.133C38.6339 12.7139 38.1313 12.5043 37.4123 12.5043C36.6666 12.5043 36.0841 12.7272 35.6647 13.173C35.2453 13.6187 35.0356 14.1809 35.0356 14.8595V19.969C35.0356 20.315 34.9224 20.6044 34.696 20.8372C34.4697 21.0701 34.1834 21.1865 33.8372 21.1865C33.4911 21.1865 33.2048 21.0701 32.9784 20.8372C32.7521 20.6044 32.6389 20.315 32.6389 19.969V14.8595C32.6389 14.1277 32.4958 13.5522 32.2095 13.133C31.9232 12.7139 31.4206 12.5043 30.7016 12.5043C29.956 12.5043 29.3734 12.7272 28.954 13.173C28.5346 13.6187 28.3249 14.1809 28.3249 14.8595V19.969C28.3249 20.315 28.2117 20.6044 27.9854 20.8372C27.759 21.0701 27.4727 21.1865 27.1266 21.1865C26.7804 21.1865 26.4941 21.0701 26.2678 20.8372C26.0414 20.6044 25.9282 20.315 25.9282 19.969V11.7262C25.9282 11.3802 26.0414 11.0908 26.2678 10.858C26.4941 10.6251 26.7804 10.5087 27.1266 10.5087C27.4727 10.5087 27.759 10.6251 27.9854 10.858C28.2117 11.0908 28.3249 11.3802 28.3249 11.7262V12.0455C28.6844 11.5665 29.1404 11.1574 29.693 10.8181C30.2456 10.4788 30.8614 10.3091 31.5404 10.3091C33.2181 10.3091 34.2899 11.0409 34.756 12.5046C35.0622 11.9457 35.5249 11.4401 36.144 10.9877C36.7632 10.5353 37.4655 10.3091 38.2511 10.3091V10.3088ZM54.6083 15.8574C54.6083 16.9219 54.3686 17.8766 53.8893 18.7216C53.4099 19.5665 52.7542 20.2218 51.922 20.6875C51.0898 21.1532 50.1744 21.3861 49.1758 21.3861C48.1639 21.3861 47.2451 21.1532 46.4196 20.6875C45.5941 20.2218 44.9417 19.5665 44.4623 18.7216C43.983 17.8766 43.7433 16.9219 43.7433 15.8574C43.7433 14.793 43.983 13.8383 44.4623 12.9933C44.9417 12.1484 45.5941 11.4897 46.4196 11.0174C47.2451 10.545 48.1639 10.3088 49.1758 10.3088C50.1744 10.3088 51.0898 10.545 51.922 11.0174C52.7542 11.4897 53.4099 12.1484 53.8893 12.9933C54.3686 13.8383 54.6083 14.793 54.6083 15.8574V15.8574ZM52.2116 15.8574C52.2116 15.2054 52.0751 14.6233 51.8021 14.111C51.5292 13.5987 51.163 13.2029 50.7037 12.9235C50.2443 12.644 49.735 12.5043 49.1758 12.5043C48.6166 12.5043 48.1073 12.644 47.6479 12.9235C47.1886 13.2029 46.8224 13.5987 46.5494 14.111C46.2765 14.6233 46.14 15.2054 46.14 15.8574C46.14 16.5094 46.2765 17.0883 46.5494 17.5939C46.8224 18.0995 47.1886 18.492 47.6479 18.7715C48.1073 19.0509 48.6166 19.1906 49.1758 19.1906C49.735 19.1906 50.2443 19.0509 50.7037 18.7715C51.163 18.492 51.5292 18.0995 51.8021 17.5939C52.0751 17.0883 52.2116 16.5094 52.2116 15.8574ZM65.2532 6.41709C65.5994 6.41709 65.8856 6.53019 66.112 6.75639C66.3384 6.98259 66.4515 7.27533 66.4515 7.63459V19.969C66.4515 20.315 66.3384 20.6044 66.112 20.8372C65.8856 21.0701 65.5994 21.1865 65.2532 21.1865C64.907 21.1865 64.6241 21.0734 64.4044 20.8472C64.1847 20.621 64.0682 20.3349 64.0549 19.989C63.722 20.3748 63.2726 20.7042 62.7067 20.9769C62.1408 21.2497 61.545 21.3861 60.9192 21.3861C60.0005 21.3861 59.1683 21.1499 58.4227 20.6776C57.677 20.2052 57.0879 19.5499 56.6551 18.7116C56.2224 17.8733 56.006 16.9219 56.006 15.8574C56.006 14.793 56.2191 13.8383 56.6451 12.9933C57.0712 12.1484 57.6537 11.4897 58.3927 11.0174C59.1317 10.545 59.9472 10.3088 60.8393 10.3088C61.4784 10.3088 62.0776 10.4253 62.6368 10.6581C63.196 10.891 63.6687 11.187 64.0549 11.5463V7.63431C64.0549 7.28835 64.168 6.99895 64.3944 6.76609C64.6207 6.53324 64.907 6.41681 65.2532 6.41681V6.41709ZM61.2188 19.1909C62.0843 19.1909 62.7899 18.8749 63.3359 18.2428C63.8818 17.6108 64.1547 16.8158 64.1547 15.8577C64.1547 14.8997 63.8818 14.1013 63.3359 13.4626C62.7899 12.8239 62.0843 12.5046 61.2188 12.5046C60.3666 12.5046 59.6676 12.8239 59.1217 13.4626C58.5758 14.1013 58.3028 14.8997 58.3028 15.8577C58.3028 16.8158 58.5725 17.6108 59.1117 18.2428C59.651 18.8749 60.3533 19.1909 61.2188 19.1909ZM78.6349 15.5983C78.6216 15.9176 78.4951 16.1771 78.2554 16.3767C78.0157 16.5762 77.7361 16.676 77.4166 16.676H70.8257C70.9855 17.4611 71.3517 18.0765 71.9242 18.5223C72.4967 18.968 73.1425 19.1909 73.8615 19.1909C74.4074 19.1909 74.8335 19.141 75.1397 19.0412C75.446 18.9414 75.689 18.8349 75.8687 18.7218C76.0485 18.6087 76.1716 18.5322 76.2382 18.4923C76.4779 18.3726 76.7042 18.3127 76.9173 18.3127C77.1969 18.3127 77.4365 18.4125 77.6363 18.6121C77.836 18.8117 77.9359 19.0445 77.9359 19.3106C77.9359 19.6699 77.7494 19.9959 77.3766 20.2886C77.0038 20.5947 76.5045 20.8541 75.8787 21.067C75.2529 21.2799 74.6205 21.3864 73.9813 21.3864C72.8629 21.3864 71.8876 21.1535 71.0554 20.6878C70.2232 20.2221 69.5808 19.5801 69.1281 18.7618C68.6754 17.9434 68.449 17.022 68.449 15.9974C68.449 14.8531 68.6887 13.8485 69.168 12.9836C69.6474 12.1187 70.2798 11.4567 71.0654 10.9977C71.851 10.5386 72.6898 10.3091 73.5819 10.3091C74.4607 10.3091 75.2895 10.5486 76.0684 11.0276C76.8474 11.5066 77.4698 12.152 77.9359 12.9637C78.4019 13.7753 78.6349 14.6535 78.6349 15.5983V15.5983ZM73.5819 12.5046C72.0374 12.5046 71.1253 13.2298 70.8457 14.6801H76.0784V14.5404C76.0252 13.9816 75.7522 13.5026 75.2596 13.1034C74.7669 12.7042 74.2077 12.5046 73.5819 12.5046ZM83.2282 19.9691C83.2282 20.3151 83.1117 20.6045 82.8787 20.8374C82.6457 21.0702 82.3561 21.1867 82.0099 21.1867C81.677 21.1867 81.3974 21.0702 81.1711 20.8374C80.9447 20.6045 80.8316 20.3151 80.8316 19.9691V7.63473C80.8316 7.28877 80.9481 6.99936 81.1811 6.76651C81.4141 6.53365 81.7037 6.41722 82.0499 6.41722C82.3827 6.41722 82.6623 6.53365 82.8887 6.76651C83.1151 6.99936 83.2282 7.28877 83.2282 7.63473V19.9691Z" fill="#C0392B" />
			<g id="Icon">
				<path id="Vector" d="M12.5632 0.88092H11.3843V3.1679H12.5632V0.88092Z" fill="#C0392B" />
				<path id="Vector_2" fill-rule="evenodd" clip-rule="evenodd" d="M8.86057 20.3549H10.2475L6.52978 25.6911H5.14282L8.86057 20.3549Z" fill="#C0392B" />
				<path id="Vector_3" fill-rule="evenodd" clip-rule="evenodd" d="M15.1283 20.3549H13.7414L17.4591 25.6911H18.8461L15.1283 20.3549Z" fill="#C0392B" />
				<path id="Vector_4" fill-rule="evenodd" clip-rule="evenodd" d="M1.51633 5.03906H22.4307L23.3814 18.4837H0.565918L1.51633 5.03906Z" fill="#2C3E50" />
				<path id="Vector_5" d="M21.2316 18.8302H2.7157V20.0084H21.2316V18.8302Z" fill="#C0392B" />
				<path id="Vector_6" d="M18.111 3.5144H5.83643V4.69254H18.111V3.5144Z" fill="#C0392B" />
			</g>
		</g>
	</g>
</svg>
